<svg width="28" height="20" viewBox="0 0 28 20" fill="none" xmlns="http://www.w3.org/2000/svg">
<path fill-rule="evenodd" clip-rule="evenodd" d="M9.62488 3.1249C8.69662 3.1249 7.80638 3.49364 7.15001 4.15002C6.49364 4.80641 6.12488 5.69663 6.12488 6.6249C6.12488 7.55315 6.49364 8.44339 7.15001 9.09977C7.80638 9.75614 8.69662 10.1249 9.62488 10.1249C10.5531 10.1249 11.4434 9.75614 12.0998 9.09977C12.7561 8.44339 13.1249 7.55315 13.1249 6.6249C13.1249 5.69663 12.7561 4.80641 12.0998 4.15002C11.4434 3.49364 10.5531 3.1249 9.62488 3.1249ZM3.49988 6.6249C3.49975 5.60967 3.75198 4.61034 4.23388 3.71677C4.71578 2.82322 5.41222 2.06346 6.26059 1.50582C7.10895 0.94818 8.08264 0.610167 9.09403 0.522195C10.1054 0.434205 11.1229 0.599003 12.0548 1.00175C12.9867 1.40451 13.8039 2.03258 14.4328 2.82952C15.0618 3.62643 15.4828 4.5672 15.658 5.56718C15.8332 6.56718 15.7571 7.59505 15.4365 8.55832C15.1159 9.52159 14.5609 10.3901 13.8214 11.0856C15.2159 11.7622 16.4266 12.7651 17.3509 14.0093C18.2753 15.2535 18.8859 16.7023 19.1309 18.2327C19.1855 18.5765 19.1011 18.9281 18.8964 19.2098C18.6918 19.4916 18.3836 19.6804 18.0398 19.735C17.6959 19.7896 17.3443 19.7053 17.0626 19.5005C16.7808 19.2959 16.5919 18.9878 16.5374 18.6439C16.2726 17.0014 15.4315 15.5067 14.1648 14.4278C12.8981 13.349 11.2887 12.7565 9.62488 12.7565C7.96106 12.7565 6.35162 13.349 5.08496 14.4278C3.81829 15.5067 2.97719 17.0014 2.71238 18.6439C2.68527 18.8142 2.62486 18.9774 2.53465 19.1245C2.44442 19.2715 2.32613 19.3992 2.18655 19.5003C2.04696 19.6017 1.88879 19.6743 1.72109 19.7144C1.55339 19.7546 1.37942 19.7613 1.20913 19.7341C1.03884 19.707 0.875553 19.6466 0.728602 19.5563C0.581651 19.4662 0.45391 19.3479 0.35267 19.2083C0.251431 19.0688 0.178677 18.9106 0.138563 18.7428C0.0984492 18.5751 0.0917601 18.4012 0.118878 18.2309C0.364464 16.701 0.975284 15.2531 1.89955 14.0095C2.82383 12.7659 4.03431 11.7636 5.42838 11.0874C4.81855 10.5152 4.33272 9.8239 4.00101 9.0563C3.66928 8.28868 3.4987 7.46112 3.49988 6.6249ZM19.2499 3.9999C18.9018 3.9999 18.5679 4.13817 18.3219 4.38432C18.0756 4.63046 17.9374 4.96429 17.9374 5.3124C17.9374 5.66049 18.0756 5.99432 18.3219 6.24048C18.5679 6.48662 18.9018 6.6249 19.2499 6.6249C19.8419 6.62494 20.4166 6.82515 20.8807 7.19304C21.3446 7.56092 21.6707 8.07484 21.8056 8.65137C21.9405 9.22789 21.8766 9.83312 21.6243 10.3687C21.3719 10.9044 20.946 11.339 20.4154 11.6019C20.1966 11.7107 20.0125 11.8785 19.8839 12.0862C19.7553 12.294 19.6872 12.5335 19.6874 12.7779V13.3939C19.687 13.6887 19.7859 13.9751 19.9681 14.2068C20.1503 14.4386 20.4052 14.6023 20.6919 14.6714C22.7919 15.1771 24.4754 16.7714 25.1054 18.8224C25.1553 18.9878 25.2375 19.1418 25.3471 19.2755C25.4568 19.409 25.5917 19.5198 25.7443 19.6012C25.8967 19.6824 26.0639 19.7327 26.2359 19.7494C26.4079 19.766 26.5815 19.7483 26.7469 19.6978C26.9121 19.647 27.0657 19.5642 27.1987 19.454C27.3319 19.3437 27.442 19.2083 27.5227 19.0553C27.6033 18.9025 27.653 18.7353 27.6688 18.563C27.6847 18.391 27.6663 18.2174 27.6149 18.0524C27.2645 16.9159 26.6867 15.8626 25.9165 14.9566C25.1463 14.0504 24.1999 13.3104 23.1349 12.7814C23.819 12.0288 24.2699 11.0936 24.4325 10.0896C24.5953 9.08563 24.4628 8.05598 24.0514 7.12584C23.6398 6.1957 22.9669 5.40512 22.1146 4.85017C21.2622 4.29523 20.267 3.99983 19.2499 3.9999Z" fill="#A167FF"/>
</svg>
